<?xml version="1.0" encoding="UTF-8" standalone="no"?>
<!-- Created with Inkscape (http://www.inkscape.org/) -->

<svg
   width="128"
   height="128"
   viewBox="0 0 128 128"
   version="1.1"
   id="svg1"
   sodipodi:docname="player.svg"
   inkscape:version="1.3.2 (091e20e, 2023-11-25, custom)"
   inkscape:export-filename="bullet.png"
   inkscape:export-xdpi="96"
   inkscape:export-ydpi="96"
   xmlns:inkscape="http://www.inkscape.org/namespaces/inkscape"
   xmlns:sodipodi="http://sodipodi.sourceforge.net/DTD/sodipodi-0.dtd"
   xmlns="http://www.w3.org/2000/svg"
   xmlns:svg="http://www.w3.org/2000/svg">
  <sodipodi:namedview
     id="namedview1"
     pagecolor="#ffffff"
     bordercolor="#000000"
     borderopacity="1"
     inkscape:showpageshadow="false"
     inkscape:pageopacity="0.0"
     inkscape:pagecheckerboard="0"
     inkscape:deskcolor="#ffffff"
     inkscape:document-units="px"
     inkscape:zoom="2.8284271"
     inkscape:cx="-23.688077"
     inkscape:cy="152.38151"
     inkscape:window-width="2560"
     inkscape:window-height="1494"
     inkscape:window-x="-11"
     inkscape:window-y="-11"
     inkscape:window-maximized="1"
     inkscape:current-layer="layer2"
     showgrid="true"
     borderlayer="true">
    <inkscape:grid
       id="grid1"
       units="px"
       originx="0"
       originy="0"
       spacingx="64"
       spacingy="64"
       empcolor="#0099e5"
       empopacity="0.30196078"
       color="#0099e5"
       opacity="0.14901961"
       empspacing="5"
       dotted="false"
       gridanglex="30"
       gridanglez="30"
       visible="true" />
  </sodipodi:namedview>
  <defs
     id="defs1" />
  <g
     inkscape:groupmode="layer"
     id="layer2"
     inkscape:label="Layer 1">
    <rect
       style="fill:#95deec;fill-opacity:1;stroke:#180d19;stroke-width:12;stroke-miterlimit:5;paint-order:stroke fill markers"
       id="rect67"
       width="21.161165"
       height="24"
       x="-62.112"
       y="289.17178" />
    <circle
       style="fill:#de4230;stroke:#180d19;stroke-width:6;stroke-miterlimit:5;paint-order:stroke fill markers"
       id="circle10"
       cx="-64.293549"
       cy="170.26823"
       r="5.75" />
    <circle
       style="fill:#de4230;stroke:#180d19;stroke-width:6;stroke-miterlimit:5;paint-order:stroke fill markers"
       id="path10"
       cx="-63.586456"
       cy="136.08627"
       r="5.75"
       inkscape:export-filename="..\player\red_particle.png"
       inkscape:export-xdpi="96"
       inkscape:export-ydpi="96" />
    <path
       id="path67"
       style="fill:#95deec;fill-opacity:1;stroke:#180d19;stroke-width:12;stroke-miterlimit:5;paint-order:stroke fill markers"
       d="m -89.138865,265.16399 a 36.007867,36.007867 0 0 0 -36.007815,36.0078 36.007867,36.007867 0 0 0 36.007815,36.0078 36.007867,36.007867 0 0 0 36.00781,-36.0078 36.007867,36.007867 0 0 0 -36.00781,-36.0078 z m 0,13.5171 a 22.490714,22.490714 0 0 1 22.49066,22.4907 22.490714,22.490714 0 0 1 -22.49066,22.4907 22.490714,22.490714 0 0 1 -22.490665,-22.4907 22.490714,22.490714 0 0 1 22.490665,-22.4907 z" />
    <circle
       style="fill:#95deec;fill-opacity:1;stroke:#180d19;stroke-width:12;stroke-miterlimit:5;paint-order:stroke fill markers"
       id="circle68"
       cx="-89.138855"
       cy="301.17178"
       r="9.500001" />
    <circle
       style="opacity:0.502;fill:#de4230;stroke:#180d19;stroke-width:6;stroke-miterlimit:5;paint-order:stroke fill markers"
       id="circle11"
       cx="-96.399261"
       cy="122.50912"
       r="5.75" />
    <circle
       style="opacity:0.873303;fill:#de4230;stroke:#180d19;stroke-width:6;stroke-miterlimit:5;paint-order:stroke fill markers"
       id="circle12"
       cx="-79.934784"
       cy="151.25784"
       r="5.75" />
    <circle
       style="opacity:0.502;fill:#de4230;stroke:#180d19;stroke-width:6;stroke-miterlimit:5;paint-order:stroke fill markers"
       id="circle13"
       cx="-100.53101"
       cy="147.22842"
       r="5.75" />
    <circle
       style="opacity:0.873303;fill:#de4230;stroke:#180d19;stroke-width:6;stroke-miterlimit:5;paint-order:stroke fill markers"
       id="circle14"
       cx="-82.388855"
       cy="177.33409"
       r="5.75" />
    <circle
       style="opacity:0.502;fill:#de4230;stroke:#180d19;stroke-width:6;stroke-miterlimit:5;paint-order:stroke fill markers"
       id="circle15"
       cx="-104.88455"
       cy="176.95628"
       r="5.75" />
    <circle
       style="opacity:0.873303;fill:#de4230;stroke:#180d19;stroke-width:6;stroke-miterlimit:5;paint-order:stroke fill markers"
       id="circle16"
       cx="-81.348999"
       cy="130.75174"
       r="5.75" />
    <rect
       style="fill:#95deec;fill-opacity:1;stroke:#180d19;stroke-width:12;stroke-miterlimit:5;paint-order:stroke fill markers"
       id="rect1"
       width="21.161165"
       height="24"
       x="182.47249"
       y="143.21678" />
    <path
       id="path1"
       style="fill:#95deec;fill-opacity:1;stroke:#180d19;stroke-width:12;stroke-miterlimit:5;paint-order:stroke fill markers"
       d="m 60.818018,165.87802 a 36.007867,36.007867 0 0 0 -36.007811,36.0078 36.007867,36.007867 0 0 0 36.007811,36.0078 36.007867,36.007867 0 0 0 36.007811,-36.0078 36.007867,36.007867 0 0 0 -36.007811,-36.0078 z m 0,13.5171 a 22.490714,22.490714 0 0 1 22.49066,22.4907 22.490714,22.490714 0 0 1 -22.49066,22.4907 22.490714,22.490714 0 0 1 -22.49066,-22.4907 22.490714,22.490714 0 0 1 22.49066,-22.4907 z" />
    <circle
       style="fill:#95deec;fill-opacity:1;stroke:#180d19;stroke-width:12;stroke-miterlimit:5;paint-order:stroke fill markers"
       id="circle1"
       cx="138.95332"
       cy="243.95868"
       r="9.500001" />
    <g
       id="g1"
       transform="translate(0.0987339,-263.6796)">
      <ellipse
         style="fill:#de4230;fill-opacity:1;stroke:#180d19;stroke-width:12;stroke-miterlimit:5;paint-order:stroke fill markers"
         id="ellipse157"
         cx="63.401184"
         cy="327.6796"
         rx="18.401203"
         ry="9.5" />
      <ellipse
         style="fill:#de4230;fill-opacity:1;stroke:#180d19;stroke-width:12;stroke-miterlimit:5;paint-order:stroke fill markers"
         id="ellipse158"
         cx="70.302551"
         cy="327.6796"
         rx="12.5"
         ry="9.5" />
    </g>
    <circle
       style="fill:#de4230;stroke:#180d19;stroke-width:6;stroke-miterlimit:5;paint-order:stroke fill markers"
       id="circle2"
       cx="29.298841"
       cy="107.34921"
       inkscape:export-filename="..\player\red_particle.png"
       inkscape:export-xdpi="96"
       inkscape:export-ydpi="96"
       clip-path="none"
       r="3" />
  </g>
</svg>
