<?xml version="1.0" encoding="UTF-8" standalone="no"?>
<!-- Created with Inkscape (http://www.inkscape.org/) -->

<svg
   width="89.577148"
   height="87.761719"
   viewBox="0 0 89.577148 87.761719"
   version="1.1"
   id="svg1"
   xmlns="http://www.w3.org/2000/svg"
   xmlns:svg="http://www.w3.org/2000/svg">
  <defs
     id="defs1" />
  <g
     id="layer2"
     transform="translate(3603.0098,608.9043)">
    <g
       id="g184"
       transform="translate(-4427.25,-1365)">
      <ellipse
         style="opacity:0.36092;fill:#de4230;fill-opacity:1;stroke:#000000;stroke-width:12;stroke-miterlimit:5;paint-order:stroke fill markers"
         id="ellipse183"
         cx="854.74036"
         cy="799.97693"
         rx="24.5"
         ry="9.5" />
      <ellipse
         style="opacity:0.503448;fill:#de4230;fill-opacity:1;stroke:#000000;stroke-width:12;stroke-miterlimit:5;paint-order:stroke fill markers"
         id="ellipse182"
         cx="867.46826"
         cy="799.97693"
         rx="24.5"
         ry="9.5" />
      <path
         id="path180"
         style="opacity:1;fill:#de4230;fill-opacity:1;stroke:#180d19;stroke-width:12;stroke-linecap:round;stroke-linejoin:round;stroke-miterlimit:5;stroke-opacity:1;paint-order:stroke fill markers"
         d="m 859.40948,762.0957 a 37.486809,37.88055 0 0 0 -4.07227,0.29492 41.72945,42.167755 0 0 1 22.83985,37.58594 41.72945,42.167755 0 0 1 -22.98047,37.57617 37.486809,37.88055 0 0 0 4.21289,0.30469 37.486809,37.88055 0 0 0 37.48633,-37.88086 37.486809,37.88055 0 0 0 -37.48633,-37.88086 z" />
      <ellipse
         style="fill:#de4230;fill-opacity:1;stroke:#000000;stroke-width:12;stroke-miterlimit:5;paint-order:stroke fill markers"
         id="ellipse152"
         cx="882.3175"
         cy="799.97693"
         rx="24.5"
         ry="9.5" />
      <ellipse
         style="fill:#de4230;fill-opacity:1;stroke:#000000;stroke-width:12;stroke-miterlimit:5;paint-order:stroke fill markers"
         id="ellipse153"
         cx="895.3175"
         cy="799.97693"
         rx="12.5"
         ry="9.5" />
      <ellipse
         style="fill:#de4230;fill-opacity:1;stroke:#000000;stroke-width:12;stroke-miterlimit:5;paint-order:stroke fill markers"
         id="ellipse184"
         cx="885.41803"
         cy="799.97693"
         rx="12.5"
         ry="9.5" />
    </g>
  </g>
</svg>
