<?xml version="1.0" encoding="UTF-8" standalone="no"?>
<!-- Created with Inkscape (http://www.inkscape.org/) -->

<svg
   width="144.18945"
   height="84.109985"
   viewBox="0 0 144.18945 84.109985"
   version="1.1"
   id="svg1"
   xmlns="http://www.w3.org/2000/svg"
   xmlns:svg="http://www.w3.org/2000/svg">
  <defs
     id="defs1" />
  <g
     id="layer2"
     transform="translate(4077.6597,1077.3284)">
    <g
       id="g16"
       transform="translate(-4513.5635,-1532.1802)">
      <rect
         style="opacity:1;fill:#95deec;fill-opacity:1;stroke:#180d19;stroke-width:12;stroke-miterlimit:5;paint-order:stroke fill markers"
         id="rect67"
         width="21.161165"
         height="24"
         x="552.93207"
         y="484.95398" />
      <circle
         style="opacity:1;fill:#de4230;stroke:#180d19;stroke-width:6;stroke-miterlimit:5;paint-order:stroke fill markers"
         id="circle10"
         cx="485.24481"
         cy="511.3609"
         r="5.75" />
      <circle
         style="opacity:1;fill:#de4230;stroke:#180d19;stroke-width:6;stroke-miterlimit:5;paint-order:stroke fill markers"
         id="path10"
         cx="485.9519"
         cy="477.17892"
         r="5.75" />
      <path
         id="path67"
         style="opacity:1;fill:#95deec;fill-opacity:1;stroke:#180d19;stroke-width:12;stroke-miterlimit:5;paint-order:stroke fill markers"
         d="m 525.90521,460.9462 a 36.007867,36.007867 0 0 0 -36.00781,36.0078 36.007867,36.007867 0 0 0 36.00781,36.0078 36.007867,36.007867 0 0 0 36.00781,-36.0078 36.007867,36.007867 0 0 0 -36.00781,-36.0078 z m 0,13.5171 a 22.490714,22.490714 0 0 1 22.49066,22.4907 22.490714,22.490714 0 0 1 -22.49066,22.4907 22.490714,22.490714 0 0 1 -22.49066,-22.4907 22.490714,22.490714 0 0 1 22.49066,-22.4907 z" />
      <circle
         style="opacity:1;fill:#95deec;fill-opacity:1;stroke:#180d19;stroke-width:12;stroke-miterlimit:5;paint-order:stroke fill markers"
         id="circle68"
         cx="525.90521"
         cy="496.95398"
         r="9.500001" />
      <circle
         style="opacity:0.502;fill:#de4230;stroke:#180d19;stroke-width:6;stroke-miterlimit:5;paint-order:stroke fill markers"
         id="circle11"
         cx="453.1391"
         cy="463.60178"
         r="5.75" />
      <circle
         style="opacity:0.873303;fill:#de4230;stroke:#180d19;stroke-width:6;stroke-miterlimit:5;paint-order:stroke fill markers"
         id="circle12"
         cx="469.60358"
         cy="492.35049"
         r="5.75" />
      <circle
         style="opacity:0.502;fill:#de4230;stroke:#180d19;stroke-width:6;stroke-miterlimit:5;paint-order:stroke fill markers"
         id="circle13"
         cx="449.00735"
         cy="488.32108"
         r="5.75" />
      <circle
         style="opacity:0.873303;fill:#de4230;stroke:#180d19;stroke-width:6;stroke-miterlimit:5;paint-order:stroke fill markers"
         id="circle14"
         cx="467.14951"
         cy="518.42676"
         r="5.75" />
      <circle
         style="opacity:0.502;fill:#de4230;stroke:#180d19;stroke-width:6;stroke-miterlimit:5;paint-order:stroke fill markers"
         id="circle15"
         cx="444.65381"
         cy="518.04895"
         r="5.75" />
      <circle
         style="opacity:0.873303;fill:#de4230;stroke:#180d19;stroke-width:6;stroke-miterlimit:5;paint-order:stroke fill markers"
         id="circle16"
         cx="468.18936"
         cy="471.84439"
         r="5.75" />
    </g>
  </g>
</svg>
