<?xml version="1.0" encoding="UTF-8" standalone="no"?>
<!-- Created with Inkscape (http://www.inkscape.org/) -->

<svg
   width="122.90479"
   height="114.98352"
   viewBox="0 0 122.90479 114.98352"
   version="1.1"
   id="svg1"
   xmlns="http://www.w3.org/2000/svg"
   xmlns:svg="http://www.w3.org/2000/svg">
  <defs
     id="defs1" />
  <g
     id="layer3"
     transform="translate(5025.2017,-482.50824)">
    <g
       id="g282"
       transform="translate(-5811.9401,9.5555249)">
      <path
         id="path110-3"
         style="fill:#ff86dd;stroke:#180d19;stroke-width:12;stroke-miterlimit:5;paint-order:stroke fill markers"
         d="m 800.48491,479.36795 -3.7648,9.95626 a 40.046057,40.715708 89.574178 0 1 4.0711,-0.31707 40.046057,40.715708 89.574178 0 1 41.0116,39.74251 40.046057,40.715708 89.574178 0 1 -40.4163,40.34769 40.046057,40.715708 89.574178 0 1 -5.3342,-0.33554 l 5.1947,13.14403 53.2643,-0.39588 46.9652,-51.62082 -47.7273,-50.91706 z" />
      <path
         d="m 1489.8522,473.91704 12.3161,52.85331 47.3475,-51.27035 -47.3475,-51.27034 z"
         id="path113-6"
         style="fill:#ff86dd;paint-order:stroke fill markers"
         transform="rotate(-0.425822,8543.7044,87698.164)" />
      <path
         id="path114-1"
         style="fill:#180d19;fill-rule:nonzero;stroke:none;stroke-width:12;stroke-miterlimit:5;paint-order:stroke fill markers"
         d="m 1485.7618,474.87021 c 2.2783,9.77712 7.0853,30.40603 12.3161,52.85331 l 7.1759,1.89629 c 16.1261,-17.46217 33.2998,-36.05872 47.3475,-51.27035 l 0,-5.69892 c -14.0477,-15.21163 -31.2214,-33.80817 -47.3475,-51.27034 l -7.1621,1.83898 c -5.2308,21.10267 -10.0378,40.49591 -12.3161,49.68738 z m 8.167,0.0573 c 2.0029,-8.08018 5.96,-24.04438 10.4412,-42.12313 9.8452,10.6609 25.9001,28.04596 39.4288,42.69561 -9.8644,10.6817 -24.8336,26.89119 -39.3388,42.59814 -4.5125,-19.3651 -8.5032,-36.49053 -10.5174,-45.13427 z"
         transform="rotate(-0.425822,8543.7044,87698.164)" />
    </g>
  </g>
</svg>
